<svg xmlns="http://www.w3.org/2000/svg" id="mainsvg" width="569.22314453125" height="318.58750000000003" viewBox="-10 -10 517.4755859375 289.625"><defs><marker id="arrow" viewBox="0 0 10 10" refX="10" refY="5" markerWidth="5" markerHeight="5" orient="auto-start-reverse" fill="black"><path d="M 0 0 L 10 5 L 0 10 z"/></marker><filter id="shadowOLD" x="-50%" y="-50%" width="250%" height="250%"><feDropShadow flood-color="black" flood-opacity="0.3" dx="1" dy="1" stdDeviation="2"> </feDropShadow></filter><filter id="shadow-path" filterUnits="userSpaceOnUse" x="-10" y="-10" width="517.4755859375px" height="289.625px"><feDropShadow flood-color="black" flood-opacity="0.1" dx="1" dy="1" stdDeviation="1"> </feDropShadow></filter><filter id="shadow" filterUnits="userSpaceOnUse" x="-10" y="-10" width="617.4755859375px" height="389.625px"><feDropShadow flood-color="black" flood-opacity="0.1" dx="1" dy="1" stdDeviation="1"> </feDropShadow></filter></defs><rect x="-10" y="-10" width="517.4755859375" height="289.625" fill="#fff"/><g transform="translate(0, 0)"><rect width="98.6953125" height="33.375" stroke="black" fill="white" stroke-width="2" transform="translate(0, 0)" rx="3"/><text fill="black" font-size="16" font-weight="normal" transform="translate(8, 8)" alignment-baseline="middle" font-family="Arial"><tspan x="0" dy="16" font-family="Arial" font-size="16" font-weight="normal">/bookmarks</tspan></text></g><g transform="translate(154.0478515625, 0)"><rect width="42.6953125" height="33.375" stroke="black" fill="white" stroke-width="2" transform="translate(0, 0)" rx="3"/><text fill="black" font-size="16" font-weight="normal" transform="translate(8, 8)" alignment-baseline="middle" font-family="Arial"><tspan x="0" dy="16" font-family="Arial" font-size="16" font-weight="normal">app</tspan></text></g><g transform="translate(263.6318359375, 0)"><rect width="88.0234375" height="33.375" stroke="black" fill="white" stroke-width="2" transform="translate(0, 0)" rx="3"/><text fill="black" font-size="16" font-weight="normal" transform="translate(8, 8)" alignment-baseline="middle" font-family="Arial"><tspan x="0" dy="16" font-family="Arial" font-size="16" font-weight="normal">Bookmark</tspan></text></g><g transform="translate(375.6552734375, 0)"><rect width="121.8203125" height="33.375" stroke="black" fill="white" stroke-width="2" transform="translate(0, 0)" rx="3"/><text fill="black" font-size="16" font-weight="normal" transform="translate(8, 8)" alignment-baseline="middle" font-family="Arial"><tspan x="0" dy="16" font-family="Arial" font-size="16" font-weight="normal">bookmarks.erb</tspan></text></g><path d="M 49.34765625,72.75 L 175.3955078125 72.75" fill="none" stroke="black" stroke-dasharray="none" stroke-width="2" marker-end="url(#arrow)"/><path d="M 175.3955078125,108.125 L 307.6435546875 108.125" fill="none" stroke="black" stroke-dasharray="none" stroke-width="2" marker-end="url(#arrow)"/><path d="M 307.6435546875,143.5 L 175.3955078125 143.5" fill="none" stroke="black" stroke-dasharray="4,4" stroke-width="2" marker-end="url(#arrow)"/><path d="M 175.3955078125,178.875 L 436.5654296875 178.875" fill="none" stroke="black" stroke-dasharray="none" stroke-width="2" marker-end="url(#arrow)"/><path d="M 436.5654296875,214.25 L 175.3955078125 214.25" fill="none" stroke="black" stroke-dasharray="4,4" stroke-width="2" marker-end="url(#arrow)"/><path d="M 175.3955078125,249.625 L 49.34765625 249.625" fill="none" stroke="black" stroke-dasharray="4,4" stroke-width="2" marker-end="url(#arrow)"/><path d="M 49.34765625,33.375 L 49.34765625 269.625" fill="none" stroke="black" stroke-dasharray="none" stroke-width="2"/><path d="M 175.3955078125,33.375 L 175.3955078125 269.625" fill="none" stroke="black" stroke-dasharray="none" stroke-width="2"/><path d="M 307.6435546875,33.375 L 307.6435546875 269.625" fill="none" stroke="black" stroke-dasharray="none" stroke-width="2"/><path d="M 436.5654296875,33.375 L 436.5654296875 269.625" fill="none" stroke="black" stroke-dasharray="none" stroke-width="2"/><g transform="translate(73.34765625, 45.375)"><rect width="78.0478515625" height="23.375" stroke="none" fill="white" stroke-width="0" transform="translate(0, 0)" rx="2"/><text fill="black" font-size="14" font-weight="normal" transform="translate(4, 4)" alignment-baseline="middle" font-family="Arial"><tspan x="0" dy="14" font-family="Arial" font-size="14" font-weight="normal">get request</tspan></text></g><g transform="translate(228.5712890625, 80.75)"><rect width="25.896484375" height="23.375" stroke="none" fill="white" stroke-width="0" transform="translate(0, 0)" rx="2"/><text fill="black" font-size="14" font-weight="normal" transform="translate(4, 4)" alignment-baseline="middle" font-family="Arial"><tspan x="0" dy="14" font-family="Arial" font-size="14" font-weight="normal">.all</tspan></text></g><g transform="translate(199.3955078125, 116.125)"><rect width="84.248046875" height="23.375" stroke="none" fill="white" stroke-width="0" transform="translate(0, 0)" rx="2"/><text fill="black" font-size="14" font-weight="normal" transform="translate(4, 4)" alignment-baseline="middle" font-family="Arial"><tspan x="0" dy="14" font-family="Arial" font-size="14" font-weight="normal">[bookmarks]</tspan></text></g><g transform="translate(263.8564453125, 151.5)"><rect width="84.248046875" height="23.375" stroke="none" fill="white" stroke-width="0" transform="translate(0, 0)" rx="2"/><text fill="black" font-size="14" font-weight="normal" transform="translate(4, 4)" alignment-baseline="middle" font-family="Arial"><tspan x="0" dy="14" font-family="Arial" font-size="14" font-weight="normal">[bookmarks]</tspan></text></g><g transform="translate(288.75634765625, 186.875)"><rect width="34.4482421875" height="23.375" stroke="none" fill="white" stroke-width="0" transform="translate(0, 0)" rx="2"/><text fill="black" font-size="14" font-weight="normal" transform="translate(4, 4)" alignment-baseline="middle" font-family="Arial"><tspan x="0" dy="14" font-family="Arial" font-size="14" font-weight="normal">html</tspan></text></g><g transform="translate(79.5751953125, 222.25)"><rect width="65.5927734375" height="23.375" stroke="none" fill="white" stroke-width="0" transform="translate(0, 0)" rx="2"/><text fill="black" font-size="14" font-weight="normal" transform="translate(4, 4)" alignment-baseline="middle" font-family="Arial"><tspan x="0" dy="14" font-family="Arial" font-size="14" font-weight="normal">response</tspan></text></g></svg>